<mxfile host="app.diagrams.net" agent="Mozilla/5.0 (Windows NT 10.0; Win64; x64) AppleWebKit/537.36 (KHTML, like Gecko) Chrome/128.0.0.0 Safari/537.36" version="24.7.14">
  <diagram name="Page-1" id="h01iEe1_OehKsKavFNzt">
    <mxGraphModel dx="4634" dy="1138" grid="1" gridSize="10" guides="1" tooltips="1" connect="1" arrows="1" fold="1" page="1" pageScale="1" pageWidth="850" pageHeight="1100" math="0" shadow="0">
      <root>
        <mxCell id="0" />
        <mxCell id="1" parent="0" />
        <mxCell id="FKx4Xq9cWPTMeUBCNptK-139" value="Front to back cabling" style="rounded=0;whiteSpace=wrap;html=1;fillStyle=hatch;fillColor=#CCCCCC;shadow=0;glass=0;labelPosition=center;verticalLabelPosition=top;align=center;verticalAlign=bottom;connectable=0;" vertex="1" parent="1">
          <mxGeometry x="745" y="110" width="235" height="60" as="geometry" />
        </mxCell>
        <mxCell id="FKx4Xq9cWPTMeUBCNptK-1" value="Front" style="strokeColor=#666666;html=1;verticalLabelPosition=bottom;labelBackgroundColor=#ffffff;verticalAlign=top;outlineConnect=0;shadow=0;dashed=0;shape=mxgraph.rackGeneral.rackCabinet3;fillColor2=#f4f4f4;container=1;collapsible=0;childLayout=rack;allowGaps=1;marginLeft=33;marginRight=9;marginTop=21;marginBottom=22;textColor=#666666;numDisp=descend;rackUnitSize=20;connectable=0;labelPosition=center;align=center;" vertex="1" parent="1">
          <mxGeometry x="541" y="89" width="204" height="940" as="geometry" />
        </mxCell>
        <mxCell id="FKx4Xq9cWPTMeUBCNptK-114" value="&lt;p style=&quot;line-height: 100%;&quot;&gt;Mellanox SX6036&lt;br&gt;QSFP+ switch&lt;/p&gt;" style="html=1;verticalLabelPosition=middle;verticalAlign=middle;outlineConnect=0;shadow=0;dashed=0;shape=mxgraph.rack.hpe_aruba.gateways_controllers.aruba_7210_mobility_controller_rear;labelPosition=left;align=right;spacingLeft=15;spacingRight=53;fontSize=9;" vertex="1" parent="FKx4Xq9cWPTMeUBCNptK-1">
          <mxGeometry x="33" y="21" width="162" height="20" as="geometry" />
        </mxCell>
        <mxCell id="FKx4Xq9cWPTMeUBCNptK-116" value="&lt;p style=&quot;line-height: 100%;&quot;&gt;Fiber patch panel&lt;br&gt;12x LC UPC via MTP cassette&lt;/p&gt;" style="strokeColor=#666666;html=1;labelPosition=left;align=right;spacingLeft=15;shadow=0;dashed=0;outlineConnect=0;shape=mxgraph.rack.general.cat5e_rack_mount_patch_panel_24_ports;verticalLabelPosition=middle;verticalAlign=middle;spacingRight=53;fontSize=9;" vertex="1" parent="FKx4Xq9cWPTMeUBCNptK-1">
          <mxGeometry x="33" y="41" width="162" height="20" as="geometry" />
        </mxCell>
        <mxCell id="FKx4Xq9cWPTMeUBCNptK-110" value="&lt;p style=&quot;line-height: 100%;&quot;&gt;Brocade ICX 7250&lt;br&gt;Access switch&lt;/p&gt;" style="html=1;verticalLabelPosition=middle;verticalAlign=middle;outlineConnect=0;shadow=0;dashed=0;shape=mxgraph.rack.hpe_aruba.switches.j9776a_2530_24g_switch;labelPosition=left;align=right;spacing=2;spacingLeft=15;spacingRight=53;points=[[1,0.55,0,0,0]];fontSize=9;" vertex="1" parent="FKx4Xq9cWPTMeUBCNptK-1">
          <mxGeometry x="33" y="61" width="162" height="20" as="geometry" />
        </mxCell>
        <mxCell id="FKx4Xq9cWPTMeUBCNptK-205" value="" style="endArrow=none;html=1;rounded=0;" edge="1" parent="FKx4Xq9cWPTMeUBCNptK-1">
          <mxGeometry width="50" height="50" relative="1" as="geometry">
            <mxPoint x="-101" y="81" as="sourcePoint" />
            <mxPoint x="-11" y="81" as="targetPoint" />
          </mxGeometry>
        </mxCell>
        <mxCell id="FKx4Xq9cWPTMeUBCNptK-3" value="&lt;p style=&quot;line-height: 100%;&quot;&gt;Liebert PS1500RT3-120W&lt;br&gt;UPS&lt;/p&gt;" style="shape=mxgraph.rack.apc.apc_smart_ups_1000-3000_va_2u;html=1;labelPosition=left;align=right;spacingLeft=15;dashed=0;shadow=0;fillColor=#ffffff;spacingRight=53;verticalLabelPosition=middle;verticalAlign=middle;fontSize=9;" vertex="1" parent="FKx4Xq9cWPTMeUBCNptK-1">
          <mxGeometry x="33" y="881" width="162" height="40" as="geometry" />
        </mxCell>
        <mxCell id="FKx4Xq9cWPTMeUBCNptK-42" value="" style="group;spacingRight=53;labelPosition=left;verticalLabelPosition=middle;align=right;verticalAlign=middle;fontSize=9;" vertex="1" connectable="0" parent="FKx4Xq9cWPTMeUBCNptK-1">
          <mxGeometry x="33" y="801" width="162" height="80" as="geometry" />
        </mxCell>
        <mxCell id="FKx4Xq9cWPTMeUBCNptK-41" value="" style="whiteSpace=wrap;html=1;" vertex="1" parent="FKx4Xq9cWPTMeUBCNptK-42">
          <mxGeometry width="162" height="81" as="geometry" />
        </mxCell>
        <mxCell id="FKx4Xq9cWPTMeUBCNptK-40" value="&lt;p style=&quot;line-height: 100%; font-size: 9px;&quot;&gt;&lt;/p&gt;&lt;div style=&quot;text-align: right; font-size: 9px; line-height: 100%;&quot;&gt;&lt;span style=&quot;text-wrap: nowrap; background-color: initial; font-size: 9px;&quot;&gt;&lt;font style=&quot;font-size: 9px;&quot;&gt;IBM TS3200&lt;/font&gt;&lt;/span&gt;&lt;/div&gt;&lt;span style=&quot;text-align: right; text-wrap: nowrap; font-size: 9px;&quot;&gt;&lt;font style=&quot;font-size: 9px;&quot;&gt;Tape library&lt;/font&gt;&lt;/span&gt;&lt;p style=&quot;font-size: 9px;&quot;&gt;&lt;/p&gt;" style="vsdxID=16;fillColor=none;gradientColor=none;image;image=data:image/png,iVBORw0KGgoAAAANSUhEUgAAAPEAAABTCAIAAADBfXa7AAAHtElEQVR4nO2dv2vbTBjHn7hOGggmJGCa2qXEhSZLCaQSGAIpNFOXeunUpcs73Nilf0A7NFu2Ujholy6euqS7l0CnZClkSaCFYqt1IDgUFJo0Ud7h2rMsy/px+nnn5zOEPIpkPeL55rmvTpI1cXV1BQiiEIWsE0CQmEFNI6qBmkZUAzWNqAZqGlEN1DSiGqhpRDVQ04hqoKbzyI8fP7JOQWJQ05HwEJ+vLj1WuHnzpnhOYw9qOhIvX74c9SdfXXqsQAgRTglBTYuj6/re3t4o/em6ruu6x7aj/koI2dvb89gW8QY1LY6maQAwPT3tsc7z58/DfiyllH84Bx12cCbwvjxEMYpZJ4D4w3yIpmmshTNzYl+C2ME+7Q93zA4BJW15d3d3+V4qlYphGEzE9v2ydRA7qGkvmJpZU7x9+3a5XLbLWtf1hf8WEtr1z/c/d3d3WUuuVCpsoWEY7Be2hIUoawd4jjgSQgillAkaAL5///7r16+UZ9ns/0KuCnacSiKAftobXdd5jwSAw8PD9DWkaRr/v+KCZvpGP+0KajoclmWx/p3aHvl5Id8pmg1vUNM+GIZhb9WFQmFycjLNBPgsh67r9rNGBup7GPTTXjx48AAAjH+w8M2bN2nmwM4R2f+VruvM0PMleBV9GOzTI6GUEkI0TZubmwOAXq9nmib7PRPYdF5We5cI1LQX3MsCwMLCwqtXrzJJg/kf+/w0FzeeIw6D89PipDA/zX5nlto+y8EsNZppV7BPS8BwM0Y1exBC041GI7k8orC9vZ11Ckohe6HD9ekvX74IJZMgKysrWaegIFIXOpymr1+/Hj4ZRD6kLjRqGnFB6kKjphEXpC50OE1PTU0llAeSK6QuNPZpcSqVivE+qQt79ptM0kfqQqOmI5Gt8pJD6kJL7z0yvA6q8Ly41IWWvk///v076xQUROpCh9M0CmhMkLrQeA8Tohr4TACiGqhpRDUU1/Tl5WWo5YgCKH7/9NnZ2bVr1yzLKhaLlmVdXl5OTU0Vi8Wzs7PJyUnLsgqFwsXFRaFQgFye7CMC4DkiohqKew9kDEFNI6qhuKar1Wq1WnUsiRLal6QWJpq2ejg1TQhR+GtQWC15RUOFGSJp2ulA/sGX9M8R2dLT09OTk5NKpaLYF0ewGnc6nUxCvsQRZpiYGhBCTk9P//z50+v1FhcXmWgH+nSpVGq1Wrdu3TIMQ41unb73sGuIh51OxzUM+MmJpi0vhJBCoXDnzp2dnZ25ubn9/X0m2iL/88XFRbPZBIDt7e16vZ5lsgng2ib5MO0aMhwhDLW64c4Xan2PxMTSdj0K1zwVYGZm5t27dwCws7OztLTEFvavuZim+fTp02az+ejRo3a7XS6Xs0kzViIO03aVRAlhhDqFE4t+FGpgmuazZ88+fPiwvr7+9etXtvCv96CUzs7Ottvt9fX1o6OjxcVF/j3eUhN9EBczG47Q23v4WhGBtIMfhbxQSi3L+vbtW71e73a7q6urzE8X7WswOzI7OwvKfXuVsPcAP/Pgu0JCVgS9B4PJtVwu8y48LtfGkx7iIYwcE81krOY9XBmvay4CY3pA7zHKXcTiPZJIG9RFcU3bGW5RfJh2DYN/Trz4egZXQWeedn5A7yEYgpDZyI8zURjF+3T0MT1esyHgTOJN23VzxVBc0wLkrd4BO2ve0s4Q9B6CIaD3yCuKP7sVtsy+Yzr88wbsZ9Jh7Gm7bq4YfU07blpS7L48RElcRTvQp6vVKqX08ePHBwcHKb+BOCHErggGcQjVYJfxooRJpO26udQsLy9vbW2tra3Nz8+zJf378iil7LA/ffq0vLycWY6xooD38LUiodJ23VxSCCETExNbW1sA8Pnz506nw2Tcv4eJELK2tgYAKysrd+/eVaBJi5G3Ygec0Mhb2ilAKb26unr48CEA1Go17iwGvMf8/DwTezY5JoDYIO4IZfEeQdJ23VxqZmZmHKJ1zuWpYaM5UWblAm6ek1B4cwVwiNZ5zUUlQdupVqv2QZyFdsM6HHpv6/jwGEPfXdvVGSVtZXCIdsB72Bu4GuIWG7UdYZD5hCjuIi6zESptZRgW7cBz45TSFy9e9Hq9drvNn8LlyPjKXoW9x6i0wx7FMLIUmqm5VCqdn5+zpw0HzhHZM7avX79uNptPnjwZ9TqPHD7QpWlakNV4IXmn5KH3VBoE0IR33w0bRk87yFF4I0uhS6VSrVbb3Nzc2NjgF1X63uP8/Pzt27cA8PHjx/v377t+7vT0dEIZJ4TYqO0IQ/XFUM6E4es9xNL2PgpvZCm0aZqbm5sA0Gq1arUaW9jX9MnJycbGRqvVqtfrR0dHrm9Jy+HrmLzhzcleV0cImXoPj8TE0o7uPUCeQne7XSbae/fuHR8fs4V/Nc2uuezv7y8tLbXb7dXVVdfRR/ZvaOYjsj3k1XWE+SFU2rEchRSF5k+F12q14+NjTdOc54hgO4V0nfRoNBrdbjeVbENw48YNhd9TmAnSFZrplot2YC7Pd/6uVCrFkR6Sd+QqtNf8tC9SDEljTsCZOO/BTepCS/9uZnzbkJ1GoxHQiXmvKXWhw2k6h1M8pmlmnYKCSF1o6fs0atpBLFcBpS50OE33er3wySDpEdcUkNSFHpfnxpHx4X+OyXYJEJWeywAAAABJRU5ErkJggg==;strokeColor=none;points=[];labelBackgroundColor=none;rounded=0;html=1;whiteSpace=wrap;labelPosition=left;verticalLabelPosition=middle;align=right;verticalAlign=middle;spacingRight=53;fontSize=9;" vertex="1" parent="FKx4Xq9cWPTMeUBCNptK-42">
          <mxGeometry x="1" width="160" height="81" as="geometry" />
        </mxCell>
        <mxCell id="FKx4Xq9cWPTMeUBCNptK-60" value="" style="group;spacingRight=40;labelPosition=left;verticalLabelPosition=middle;align=right;verticalAlign=middle;fontSize=9;" vertex="1" connectable="0" parent="FKx4Xq9cWPTMeUBCNptK-1">
          <mxGeometry x="33" y="721" width="162" height="80" as="geometry" />
        </mxCell>
        <mxCell id="FKx4Xq9cWPTMeUBCNptK-58" value="" style="shape=mxgraph.rack.ibm.ibm_x3630_m3;html=1;labelPosition=left;align=right;spacingLeft=15;dashed=0;shadow=0;fillColor=#ffffff;movable=1;resizable=1;rotatable=1;deletable=1;editable=1;locked=0;connectable=1;verticalLabelPosition=middle;verticalAlign=middle;" vertex="1" parent="FKx4Xq9cWPTMeUBCNptK-60">
          <mxGeometry y="40.5" width="161.99999999999997" height="40.5" as="geometry" />
        </mxCell>
        <mxCell id="FKx4Xq9cWPTMeUBCNptK-59" value="&lt;p style=&quot;line-height: 100%; font-size: 9px;&quot;&gt;&lt;span style=&quot;font-size: 9px;&quot;&gt;NetApp DS4246&lt;/span&gt;&lt;br style=&quot;padding: 0px; margin: 0px; font-size: 9px;&quot;&gt;&lt;span style=&quot;font-size: 9px;&quot;&gt;Disk shelf&lt;/span&gt;&lt;/p&gt;" style="shape=mxgraph.rack.ibm.ibm_x3630_m3;html=1;labelPosition=left;align=right;spacingLeft=0;dashed=0;shadow=0;fillColor=#ffffff;movable=1;resizable=1;rotatable=1;deletable=1;editable=1;locked=0;connectable=1;verticalLabelPosition=middle;verticalAlign=middle;spacingRight=53;fontSize=9;spacingTop=39;" vertex="1" parent="FKx4Xq9cWPTMeUBCNptK-60">
          <mxGeometry width="161.99999999999997" height="40.5" as="geometry" />
        </mxCell>
        <mxCell id="FKx4Xq9cWPTMeUBCNptK-68" value="&lt;p style=&quot;line-height: 100%;&quot;&gt;Dell PowerEdge R720&lt;br&gt;Not in use&lt;/p&gt;" style="strokeColor=#666666;html=1;labelPosition=left;align=right;spacingLeft=15;shadow=0;dashed=0;outlineConnect=0;shape=mxgraph.rack.dell.poweredge_r730xd;spacingRight=53;verticalLabelPosition=middle;verticalAlign=middle;fontSize=9;" vertex="1" parent="FKx4Xq9cWPTMeUBCNptK-1">
          <mxGeometry x="33" y="681" width="162" height="40" as="geometry" />
        </mxCell>
        <mxCell id="FKx4Xq9cWPTMeUBCNptK-70" value="Dell PowerEdge R730XD&lt;div style=&quot;line-height: 100%;&quot;&gt;proxmox-vm-host-01&lt;/div&gt;" style="strokeColor=#666666;html=1;labelPosition=left;align=right;spacingLeft=15;shadow=0;dashed=0;outlineConnect=0;shape=mxgraph.rack.dell.dell_poweredge_2u;spacingRight=53;verticalLabelPosition=middle;verticalAlign=middle;fontSize=9;" vertex="1" parent="FKx4Xq9cWPTMeUBCNptK-1">
          <mxGeometry x="33" y="641" width="162" height="40" as="geometry" />
        </mxCell>
        <mxCell id="FKx4Xq9cWPTMeUBCNptK-72" value="&lt;p style=&quot;line-height: 100%;&quot;&gt;&lt;span style=&quot;text-align: left;&quot;&gt;HPE ProLiant DL385 G7&lt;br&gt;Not in use&lt;/span&gt;&lt;/p&gt;" style="shape=mxgraph.rack.hp.hp_proliant_dl380p_g8;html=1;labelPosition=left;align=right;spacingLeft=15;dashed=0;shadow=0;fillColor=#ffffff;spacingRight=53;verticalLabelPosition=middle;verticalAlign=middle;fontSize=9;" vertex="1" parent="FKx4Xq9cWPTMeUBCNptK-1">
          <mxGeometry x="33" y="601" width="162" height="40" as="geometry" />
        </mxCell>
        <mxCell id="FKx4Xq9cWPTMeUBCNptK-74" value="&lt;p style=&quot;line-height: 100%;&quot;&gt;&lt;span style=&quot;text-align: left;&quot;&gt;HPE ProLiant DL385 G7&lt;/span&gt;&lt;br style=&quot;text-align: left;&quot;&gt;&lt;span style=&quot;text-align: left;&quot;&gt;Not in use&lt;/span&gt;&lt;/p&gt;" style="shape=mxgraph.rack.hp.hp_proliant_dl380p_g8;html=1;labelPosition=left;align=right;spacingLeft=15;dashed=0;shadow=0;fillColor=#ffffff;spacingRight=53;verticalLabelPosition=middle;verticalAlign=middle;fontSize=9;" vertex="1" parent="FKx4Xq9cWPTMeUBCNptK-1">
          <mxGeometry x="33" y="561" width="162" height="40" as="geometry" />
        </mxCell>
        <mxCell id="FKx4Xq9cWPTMeUBCNptK-141" value="" style="group;labelPosition=left;verticalLabelPosition=middle;align=right;verticalAlign=middle;spacingRight=40;fontSize=9;" vertex="1" connectable="0" parent="FKx4Xq9cWPTMeUBCNptK-1">
          <mxGeometry x="33" y="521" width="162" height="40" as="geometry" />
        </mxCell>
        <mxCell id="FKx4Xq9cWPTMeUBCNptK-142" value="2x MS-01 on shelf&lt;div style=&quot;line-height: 9px;&quot;&gt;talos-k8s-mixed-03&lt;br&gt;talos-k8s-mixed-04&lt;/div&gt;" style="strokeColor=#666666;html=1;labelPosition=left;align=right;spacingLeft=15;shadow=0;dashed=0;outlineConnect=0;shape=mxgraph.rackGeneral.shelf;container=0;collapsible=0;spacingRight=53;verticalLabelPosition=middle;verticalAlign=middle;fontSize=9;" vertex="1" parent="FKx4Xq9cWPTMeUBCNptK-141">
          <mxGeometry width="162" height="40" as="geometry" />
        </mxCell>
        <mxCell id="FKx4Xq9cWPTMeUBCNptK-143" value="" style="fontColor=#0066CC;verticalAlign=top;verticalLabelPosition=bottom;labelPosition=center;align=center;html=1;outlineConnect=0;fillColor=#CCCCCC;strokeColor=#666666;gradientColor=none;gradientDirection=north;strokeWidth=2;shape=mxgraph.networks.hub;" vertex="1" parent="FKx4Xq9cWPTMeUBCNptK-141">
          <mxGeometry x="90" y="18" width="60" height="20" as="geometry" />
        </mxCell>
        <mxCell id="FKx4Xq9cWPTMeUBCNptK-144" value="" style="fontColor=#0066CC;verticalAlign=top;verticalLabelPosition=bottom;labelPosition=center;align=center;html=1;outlineConnect=0;fillColor=#CCCCCC;strokeColor=#666666;gradientColor=none;gradientDirection=north;strokeWidth=2;shape=mxgraph.networks.hub;" vertex="1" parent="FKx4Xq9cWPTMeUBCNptK-141">
          <mxGeometry x="10" y="18" width="60" height="20" as="geometry" />
        </mxCell>
        <mxCell id="FKx4Xq9cWPTMeUBCNptK-102" value="2U blank" style="strokeColor=#666666;html=1;labelPosition=left;align=right;spacingLeft=15;shadow=0;dashed=0;outlineConnect=0;shape=mxgraph.rackGeneral.plate;fillColor=#e8e8e8;spacingRight=53;verticalLabelPosition=middle;verticalAlign=middle;fontSize=9;" vertex="1" parent="FKx4Xq9cWPTMeUBCNptK-1">
          <mxGeometry x="33" y="481" width="162" height="40" as="geometry" />
        </mxCell>
        <mxCell id="FKx4Xq9cWPTMeUBCNptK-140" value="" style="group" vertex="1" connectable="0" parent="FKx4Xq9cWPTMeUBCNptK-1">
          <mxGeometry x="33" y="441" width="162" height="40" as="geometry" />
        </mxCell>
        <mxCell id="FKx4Xq9cWPTMeUBCNptK-95" value="2x MS-01 on shelf&lt;div style=&quot;line-height: 100%;&quot;&gt;talos-k8s-mixed-01&lt;br&gt;talos-k8s-mixed-02&lt;/div&gt;" style="strokeColor=#666666;html=1;labelPosition=left;align=right;spacingLeft=15;shadow=0;dashed=0;outlineConnect=0;shape=mxgraph.rackGeneral.shelf;container=0;collapsible=0;spacingRight=53;verticalLabelPosition=middle;verticalAlign=middle;fontSize=9;" vertex="1" parent="FKx4Xq9cWPTMeUBCNptK-140">
          <mxGeometry width="162" height="40" as="geometry" />
        </mxCell>
        <mxCell id="FKx4Xq9cWPTMeUBCNptK-96" value="" style="fontColor=#0066CC;verticalAlign=top;verticalLabelPosition=bottom;labelPosition=center;align=center;html=1;outlineConnect=0;fillColor=#CCCCCC;strokeColor=#666666;gradientColor=none;gradientDirection=north;strokeWidth=2;shape=mxgraph.networks.hub;" vertex="1" parent="FKx4Xq9cWPTMeUBCNptK-140">
          <mxGeometry x="90" y="18" width="60" height="20" as="geometry" />
        </mxCell>
        <mxCell id="FKx4Xq9cWPTMeUBCNptK-97" value="" style="fontColor=#0066CC;verticalAlign=top;verticalLabelPosition=bottom;labelPosition=center;align=center;html=1;outlineConnect=0;fillColor=#CCCCCC;strokeColor=#666666;gradientColor=none;gradientDirection=north;strokeWidth=2;shape=mxgraph.networks.hub;" vertex="1" parent="FKx4Xq9cWPTMeUBCNptK-140">
          <mxGeometry x="10" y="18" width="60" height="20" as="geometry" />
        </mxCell>
        <mxCell id="FKx4Xq9cWPTMeUBCNptK-76" value="&lt;p style=&quot;line-height: 100%;&quot;&gt;UPG&amp;nbsp;Uptyma 173RM17A&lt;br&gt;KVM console&lt;/p&gt;" style="shape=mxgraph.rack.ibm.ibm_1u_flat_panel_console_kit;html=1;labelPosition=left;align=right;spacingLeft=15;dashed=0;shadow=0;fillColor=#ffffff;spacingRight=53;verticalLabelPosition=middle;verticalAlign=middle;fontSize=9;" vertex="1" parent="FKx4Xq9cWPTMeUBCNptK-1">
          <mxGeometry x="33" y="421" width="162" height="20" as="geometry" />
        </mxCell>
        <mxCell id="FKx4Xq9cWPTMeUBCNptK-109" value="&lt;p style=&quot;line-height: 100%;&quot;&gt;Avocent DSR2010&lt;br&gt;KVM switcher over IP&lt;/p&gt;" style="shape=mxgraph.rack.cisco.cisco_nexus_3016_switch;html=1;labelPosition=left;align=right;spacingLeft=15;dashed=0;shadow=0;fillColor=#ffffff;spacingRight=53;verticalLabelPosition=middle;verticalAlign=middle;fontSize=9;" vertex="1" parent="FKx4Xq9cWPTMeUBCNptK-1">
          <mxGeometry x="33" y="401" width="162" height="20" as="geometry" />
        </mxCell>
        <mxCell id="FKx4Xq9cWPTMeUBCNptK-2" value="Back" style="strokeColor=#666666;html=1;verticalLabelPosition=bottom;labelBackgroundColor=#ffffff;verticalAlign=top;outlineConnect=0;shadow=0;dashed=0;shape=mxgraph.rackGeneral.rackCabinet3;fillColor2=#f4f4f4;container=1;collapsible=0;childLayout=rack;allowGaps=1;marginLeft=33;marginRight=9;marginTop=21;marginBottom=22;textColor=#666666;numDisp=descend;rackUnitSize=20;spacingLeft=15;" vertex="1" parent="1">
          <mxGeometry x="956" y="89" width="204" height="940" as="geometry" />
        </mxCell>
        <mxCell id="FKx4Xq9cWPTMeUBCNptK-112" value="" style="html=1;verticalLabelPosition=middle;verticalAlign=middle;outlineConnect=0;shadow=0;dashed=0;shape=mxgraph.rack.hpe_aruba.switches.r0x43a_aruba_6400_24p_sfp_4sfp56_module;labelPosition=right;align=left;spacingLeft=15;fontSize=9;" vertex="1" parent="FKx4Xq9cWPTMeUBCNptK-2">
          <mxGeometry x="33" y="21" width="162" height="20" as="geometry" />
        </mxCell>
        <mxCell id="FKx4Xq9cWPTMeUBCNptK-117" value="Cat5 patch panel" style="strokeColor=#666666;html=1;labelPosition=right;align=left;spacingLeft=27;shadow=0;dashed=0;outlineConnect=0;shape=mxgraph.rack.general.cat5e_rack_mount_patch_panel_24_ports;fontSize=9;" vertex="1" parent="FKx4Xq9cWPTMeUBCNptK-2">
          <mxGeometry x="33" y="41" width="162" height="20" as="geometry" />
        </mxCell>
        <mxCell id="FKx4Xq9cWPTMeUBCNptK-111" value="" style="html=1;verticalLabelPosition=bottom;verticalAlign=top;outlineConnect=0;shadow=0;dashed=0;shape=mxgraph.rack.hpe_aruba.switches.jl320a_aruba_2930m_24g_poeplus_1_slot_switch_rear;spacingLeft=15;align=left;fontSize=9;" vertex="1" parent="FKx4Xq9cWPTMeUBCNptK-2">
          <mxGeometry x="33" y="61" width="162" height="20" as="geometry" />
        </mxCell>
        <mxCell id="FKx4Xq9cWPTMeUBCNptK-104" value="Cat5 patch panel" style="strokeColor=#666666;html=1;labelPosition=right;align=left;spacingLeft=27;shadow=0;dashed=0;outlineConnect=0;shape=mxgraph.rack.general.cat5e_rack_mount_patch_panel_24_ports;fontSize=9;" vertex="1" parent="FKx4Xq9cWPTMeUBCNptK-2">
          <mxGeometry x="33" y="401" width="162" height="20" as="geometry" />
        </mxCell>
        <mxCell id="FKx4Xq9cWPTMeUBCNptK-103" value="" style="shape=mxgraph.rack.ibm.ibm_1u_flat_panel_console_kit;html=1;labelPosition=right;align=left;spacingLeft=15;dashed=0;shadow=0;fillColor=#ffffff;fontSize=9;" vertex="1" parent="FKx4Xq9cWPTMeUBCNptK-2">
          <mxGeometry x="33" y="421" width="162" height="20" as="geometry" />
        </mxCell>
        <mxCell id="FKx4Xq9cWPTMeUBCNptK-152" value="" style="group;spacingLeft=15;align=left;fontSize=9;" vertex="1" connectable="0" parent="FKx4Xq9cWPTMeUBCNptK-2">
          <mxGeometry x="33" y="441" width="162" height="40" as="geometry" />
        </mxCell>
        <mxCell id="FKx4Xq9cWPTMeUBCNptK-153" value="" style="strokeColor=#666666;html=1;labelPosition=left;align=right;spacingLeft=15;shadow=0;dashed=0;outlineConnect=0;shape=mxgraph.rackGeneral.shelf;container=0;collapsible=0;spacingRight=40;verticalLabelPosition=middle;verticalAlign=middle;fontSize=9;" vertex="1" parent="FKx4Xq9cWPTMeUBCNptK-152">
          <mxGeometry width="162" height="40" as="geometry" />
        </mxCell>
        <mxCell id="FKx4Xq9cWPTMeUBCNptK-154" value="" style="fontColor=#0066CC;verticalAlign=top;verticalLabelPosition=bottom;labelPosition=center;align=center;html=1;outlineConnect=0;fillColor=#CCCCCC;strokeColor=#666666;gradientColor=none;gradientDirection=north;strokeWidth=2;shape=mxgraph.networks.hub;" vertex="1" parent="FKx4Xq9cWPTMeUBCNptK-152">
          <mxGeometry x="90" y="18" width="60" height="20" as="geometry" />
        </mxCell>
        <mxCell id="FKx4Xq9cWPTMeUBCNptK-155" value="" style="fontColor=#0066CC;verticalAlign=top;verticalLabelPosition=bottom;labelPosition=center;align=center;html=1;outlineConnect=0;fillColor=#CCCCCC;strokeColor=#666666;gradientColor=none;gradientDirection=north;strokeWidth=2;shape=mxgraph.networks.hub;" vertex="1" parent="FKx4Xq9cWPTMeUBCNptK-152">
          <mxGeometry x="10" y="18" width="60" height="20" as="geometry" />
        </mxCell>
        <mxCell id="FKx4Xq9cWPTMeUBCNptK-147" value="" style="group;spacingLeft=15;align=left;fontSize=9;" vertex="1" connectable="0" parent="FKx4Xq9cWPTMeUBCNptK-2">
          <mxGeometry x="33" y="521" width="162" height="40" as="geometry" />
        </mxCell>
        <mxCell id="FKx4Xq9cWPTMeUBCNptK-148" value="" style="strokeColor=#666666;html=1;labelPosition=left;align=right;spacingLeft=15;shadow=0;dashed=0;outlineConnect=0;shape=mxgraph.rackGeneral.shelf;container=0;collapsible=0;spacingRight=40;verticalLabelPosition=middle;verticalAlign=middle;fontSize=9;" vertex="1" parent="FKx4Xq9cWPTMeUBCNptK-147">
          <mxGeometry width="162" height="40" as="geometry" />
        </mxCell>
        <mxCell id="FKx4Xq9cWPTMeUBCNptK-149" value="" style="fontColor=#0066CC;verticalAlign=top;verticalLabelPosition=bottom;labelPosition=center;align=center;html=1;outlineConnect=0;fillColor=#CCCCCC;strokeColor=#666666;gradientColor=none;gradientDirection=north;strokeWidth=2;shape=mxgraph.networks.hub;" vertex="1" parent="FKx4Xq9cWPTMeUBCNptK-147">
          <mxGeometry x="90" y="18" width="60" height="20" as="geometry" />
        </mxCell>
        <mxCell id="FKx4Xq9cWPTMeUBCNptK-150" value="" style="fontColor=#0066CC;verticalAlign=top;verticalLabelPosition=bottom;labelPosition=center;align=center;html=1;outlineConnect=0;fillColor=#CCCCCC;strokeColor=#666666;gradientColor=none;gradientDirection=north;strokeWidth=2;shape=mxgraph.networks.hub;" vertex="1" parent="FKx4Xq9cWPTMeUBCNptK-147">
          <mxGeometry x="10" y="18" width="60" height="20" as="geometry" />
        </mxCell>
        <mxCell id="FKx4Xq9cWPTMeUBCNptK-75" value="" style="shape=mxgraph.rack.hp.hp_proliant_dl380p_g8;html=1;labelPosition=right;align=left;spacingLeft=15;dashed=0;shadow=0;fillColor=#ffffff;fontSize=9;" vertex="1" parent="FKx4Xq9cWPTMeUBCNptK-2">
          <mxGeometry x="33" y="561" width="162" height="40" as="geometry" />
        </mxCell>
        <mxCell id="FKx4Xq9cWPTMeUBCNptK-73" value="" style="shape=mxgraph.rack.hp.hp_proliant_dl380p_g8;html=1;labelPosition=right;align=left;spacingLeft=15;dashed=0;shadow=0;fillColor=#ffffff;fontSize=9;" vertex="1" parent="FKx4Xq9cWPTMeUBCNptK-2">
          <mxGeometry x="33" y="601" width="162" height="40" as="geometry" />
        </mxCell>
        <mxCell id="FKx4Xq9cWPTMeUBCNptK-71" value="" style="strokeColor=#666666;html=1;labelPosition=right;align=left;spacingLeft=15;shadow=0;dashed=0;outlineConnect=0;shape=mxgraph.rack.dell.dell_poweredge_2u;fontSize=9;" vertex="1" parent="FKx4Xq9cWPTMeUBCNptK-2">
          <mxGeometry x="33" y="641" width="162" height="40" as="geometry" />
        </mxCell>
        <mxCell id="FKx4Xq9cWPTMeUBCNptK-69" value="" style="strokeColor=#666666;html=1;labelPosition=right;align=left;spacingLeft=15;shadow=0;dashed=0;outlineConnect=0;shape=mxgraph.rack.dell.poweredge_r730xd;fontSize=9;" vertex="1" parent="FKx4Xq9cWPTMeUBCNptK-2">
          <mxGeometry x="33" y="681" width="162" height="40" as="geometry" />
        </mxCell>
        <mxCell id="FKx4Xq9cWPTMeUBCNptK-64" value="" style="group;spacingLeft=15;align=left;fontSize=9;" vertex="1" connectable="0" parent="FKx4Xq9cWPTMeUBCNptK-2">
          <mxGeometry x="33" y="721" width="162" height="80" as="geometry" />
        </mxCell>
        <mxCell id="FKx4Xq9cWPTMeUBCNptK-65" value="" style="shape=mxgraph.rack.ibm.ibm_x3630_m3;html=1;labelPosition=right;align=left;spacingLeft=15;dashed=0;shadow=0;fillColor=#ffffff;movable=1;resizable=1;rotatable=1;deletable=1;editable=1;locked=0;connectable=1;" vertex="1" parent="FKx4Xq9cWPTMeUBCNptK-64">
          <mxGeometry y="40.5" width="161.99999999999997" height="40.5" as="geometry" />
        </mxCell>
        <mxCell id="FKx4Xq9cWPTMeUBCNptK-66" value="" style="shape=mxgraph.rack.ibm.ibm_x3630_m3;html=1;labelPosition=right;align=left;spacingLeft=15;dashed=0;shadow=0;fillColor=#ffffff;movable=1;resizable=1;rotatable=1;deletable=1;editable=1;locked=0;connectable=1;" vertex="1" parent="FKx4Xq9cWPTMeUBCNptK-64">
          <mxGeometry width="161.99999999999997" height="40.5" as="geometry" />
        </mxCell>
        <mxCell id="FKx4Xq9cWPTMeUBCNptK-146" value="" style="group;spacingLeft=15;align=left;fontSize=9;" vertex="1" connectable="0" parent="FKx4Xq9cWPTMeUBCNptK-2">
          <mxGeometry x="33" y="801" width="162" height="80" as="geometry" />
        </mxCell>
        <mxCell id="FKx4Xq9cWPTMeUBCNptK-43" value="" style="rounded=0;whiteSpace=wrap;html=1;" vertex="1" parent="FKx4Xq9cWPTMeUBCNptK-146">
          <mxGeometry width="162" height="81" as="geometry" />
        </mxCell>
        <mxCell id="FKx4Xq9cWPTMeUBCNptK-56" value="" style="group;" vertex="1" connectable="0" parent="FKx4Xq9cWPTMeUBCNptK-146">
          <mxGeometry x="1" width="160" height="81" as="geometry" />
        </mxCell>
        <mxCell id="FKx4Xq9cWPTMeUBCNptK-49" style="vsdxID=51;fillColor=none;gradientColor=none;image;aspect=fixed;image=data:image/png,iVBORw0KGgoAAAANSUhEUgAAALEAAABBCAIAAAAR2dKLAAAFAElEQVR4nO2csW7jSAyG6cD19pIDN9ukWFwAycA9hYxt0lyzXVT6FfwKLvUC16S5WK8RCchWqY1z1B6uPsBXcM2MOaORonglrsUPLuyxrBl7fpEcDq3J4XAARTG4GnoAijim9CxNUwDIsmy4wSgn4IxAL5Ni9jWlpjAMkyRJ03RwWfT5W4glTdPerlLW14TiCTl2AoeYZZmEwQxInzPi1oQc5KhznEjUhNKZ5+fn29tbfL7f72ezWYeT6LpD4UybD1F+ERaLBWt5enrqcB71HQpHlu+gRdEIkfPdZWkCAMIwFPLT9ElqMPRYhPmOMa9C5Xx3WZpQJCDOdyiDo5pQOKoJhaOaUDiqCYWjNTVyGaqm5oqaJGRLEDnZmwHp80dgfQndA5NQ7jUsWZb1ZrlZX0LrrISMZJxoHvOi0Joa5aegmrgcsKZmcaTzedR3KBy1E1KQs/xWTYhAa2oUB3JW4KoJhaO+Q+GoJhSOakLhqCYUztu+6Gr1AACbzV2bjzmXTJ6YOU3TqqrW63UURe8fpNIrP9Ydq9XD/GYOALuXnSkLu6wDW4qisM8Vx7F9JLYsl0sACIIA39Wt8DYMdf+JH75jfjP/NP3+afodlWEfDce8SlEUpiBQBwi+ZSZewjDEJ+v12hSE/89ecrI3A9JnFov11WAnwLimURDYSFKgcgwwjEccx3574LcTep8aZPj71HjiCZwhU7DspbMFTr+PZy9/v9/XjU/pn+Y8JpoH89LHdhZS2MGE+SlwaYKMTVEUTBZKN85SU9OlHtP2IBRkkEVxBqFBELDzmOGIIgS3nVgsFniJ0+w6AwjnEoPJgkzFbDZjmgCAqqriOFY7cRbOdZ8ah53wrDZxWWF7euYy2ofKQRCwjlarh5Y5EoXRTQE2jjxmlmVxHJsdmGEBUpZlWZZ1L7uxWj3g8gej3bEhZ/ntzm3bi8+6EIEwE5TM3disj7D2L1/+wRzJ2GQhqqbGHWNiPOH5GEtRezLWTndjqwH597/fwJUjuXj6/IdPI754wpaF7UTOyGZz9649lwtDghqQVvEEURc/tg8mmNfAdQe9u9ncjVMQovDFEygOajEnzw4qzZd4JFuLIqYmqqo607dQzokvnqC5tM2DHUC02QRnItCElUzeV1ODs2iHx1EUUUv7mS6OaMJKFF32O5xLzbpjOuyLKkifEbfZ1xU14aP9WYpTsLHN8rqxfkKBY/VCP6ka1tdbPIH1E3ZqmZbOTu9gLlnxSHNjvc4YvL6+eoZo76eMkPnN/I+vcwD486+++2q1L1rnNcwdL/MAv2toM9NhGPp1c/HsXnY4Q7uXHcDvALBcLvM8t4/8+L+2WF9T8w37aOclyzxFXdr7I5f7yAUBR9eOZtu8xtgvE4Yh1rqabLfb9h2VZfnt2+coishFTM0ROKEBkT0gBdhSYJU13S73MbsMxmZzh4kfSv8kSeI8kn5nqoFtCU0raaDBd5B3oJfgDSTN6WSfVTqTpqk//dN44Tn9zuFwKMvSnqATTaAVYv/C8FRLNGLvsGMGc7vdOvtSGCy6B4AkSWh2kyTxb1YTeZ7HcXx9fU0tj4+PdHI2BW85q48XQDRCEqG+1Ir4QVtrztn9/T0+yfOcnsdxjF7bnzD828B5cuQkZ4WW5KfOEy5Woyjqoa9fizZ75ZPJxG60Iww7xqzzHe5e9P4TEqDtAgnXiWpCCnJqalQTCud/UJqquoV7SksAAAAASUVORK5CYII=;strokeColor=none;points=[];labelBackgroundColor=none;rounded=0;html=1;whiteSpace=wrap;" vertex="1" parent="FKx4Xq9cWPTMeUBCNptK-56">
          <mxGeometry y="1.3764774073917618e-13" width="160" height="59.105466593042514" as="geometry" />
        </mxCell>
        <mxCell id="FKx4Xq9cWPTMeUBCNptK-52" style="vsdxID=8;fillColor=none;gradientColor=none;image;aspect=fixed;image=data:image/png,iVBORw0KGgoAAAANSUhEUgAAAFgAAAAjCAIAAACfElphAAADw0lEQVR4nO1ZvVLjMBBebpgbKnrMjNIxrq4ImaGigDrDXENzL6Ayj4D9CCnFA9CkYcA9D8A4BVWGzi5MWjqouGLDZk+yJdmxnRT3VbJkOdKn/fm02fv6+oL/APix7QXsCvZ9XorjuCiKIAjMoaIoACAIAmqUvhMEwc3NzWZL7RZ7TtdAFqSUSqkoirCTGmmanp6eYgMAsM1fiKII5/bDRZIkWs94PPaZuLKIyWSGjen02j4Bd4jbBrZzTge+Rlw8Pj76LGVzJElibhs75/P5cDi0zF3HCBEKEQpiRAOaQxRFaZrS4ZvnT51pmhIXRVHQC13j9fUVALIswwYAjMfjJEmUUlJKy0SvGIHbQBaAWQF8u4Y2pDlLbywAwPv7OwAMBoPn52feL6X0tQgAyBe585eIBTIN3k+dURRxvnrDx8fHcrnMsuzg4ID321kAsojv0HBW9R6eOR6vdv5aBEUueDTl8QIRx7Hfvhwwo+/5+TkALJfL4+PjWp/yzRp853ab12iiNmYNpODi4qLWKqvw9PQEjA4KllmWfX5+npycaP0W1BBUnp5PTmEGFMTV1dXPlnB5eVm6hsFgQCx4witYatgw/j08PDSe2y4wRWJYaEKEEzyOaNgdfTmZzEQosDGdXrtdA7WzJpx8oE3B72wL8/lc6xGhONx/Odx/QTrcFkH3CAr+Pn7BX8ZG6TXEhF32IJRSPp8yp/CJ+SIX4S9YiYYzd9aQUlLY89dIlG7hW3R53jWklHYulFJVRJgXDURVyqgXI/AkNS52E573KwK/WDWpR3C9VIqqSLnLqJc1LOnAhHYf7Q0kW01P5IpWG/WyCNRITuEMFUz1ee9qLN7rWQSGPSSFLlfAUoNWp+jfHOzx2DK6tojJZFZVjIAy4cwfS+sUW7mGN8aKCJRZZmGG6xCNC3zkqok/7ggLzmRMWLmGCMWf3wIA7u7/GcZaI79o0+HzHfJ4wb2D93sKqnbhyQIQEfkiRwpQZtGwUgrDDxZgoSIcaAFSq1OQNvVEA+FYBWc9hrAuzODdg1jA/VN04YsrFdr8DqIN+bCAR+dPAdo87VNbbQOss0ZV/ZqqKRo8nZ88wr5KsmEt0Vgcyv+0feCVPnEPcRzf3t42+A2fg7Ls6ujoiD++vb1Bq+6DcF+6esZoNOKPQRCYRHRR2nFYRF3XbR11qxjOP3IIKBREKPJFPp1eO4hQSpkljU6x4Z8AZt3BAhQNmC7dMaLdmNQ16hrv3X2OiqGTmuWGcBZmWvkVVAzQafF2Q/QWkrhi2LmssS38BedLb0ZxjegEAAAAAElFTkSuQmCC;strokeColor=none;points=[];labelBackgroundColor=none;rounded=0;html=1;whiteSpace=wrap;" vertex="1" parent="FKx4Xq9cWPTMeUBCNptK-56">
          <mxGeometry x="40.06626173384871" y="37.89686098654698" width="79.86747653230259" height="31.45223633351739" as="geometry" />
        </mxCell>
        <mxCell id="FKx4Xq9cWPTMeUBCNptK-55" style="vsdxID=8;fillColor=none;gradientColor=none;image;aspect=fixed;image=data:image/png,iVBORw0KGgoAAAANSUhEUgAAAFgAAAAjCAIAAACfElphAAADw0lEQVR4nO1ZvVLjMBBebpgbKnrMjNIxrq4ImaGigDrDXENzL6Ayj4D9CCnFA9CkYcA9D8A4BVWGzi5MWjqouGLDZk+yJdmxnRT3VbJkOdKn/fm02fv6+oL/APix7QXsCvZ9XorjuCiKIAjMoaIoACAIAmqUvhMEwc3NzWZL7RZ7TtdAFqSUSqkoirCTGmmanp6eYgMAsM1fiKII5/bDRZIkWs94PPaZuLKIyWSGjen02j4Bd4jbBrZzTge+Rlw8Pj76LGVzJElibhs75/P5cDi0zF3HCBEKEQpiRAOaQxRFaZrS4ZvnT51pmhIXRVHQC13j9fUVALIswwYAjMfjJEmUUlJKy0SvGIHbQBaAWQF8u4Y2pDlLbywAwPv7OwAMBoPn52feL6X0tQgAyBe585eIBTIN3k+dURRxvnrDx8fHcrnMsuzg4ID321kAsojv0HBW9R6eOR6vdv5aBEUueDTl8QIRx7Hfvhwwo+/5+TkALJfL4+PjWp/yzRp853ab12iiNmYNpODi4qLWKqvw9PQEjA4KllmWfX5+npycaP0W1BBUnp5PTmEGFMTV1dXPlnB5eVm6hsFgQCx4witYatgw/j08PDSe2y4wRWJYaEKEEzyOaNgdfTmZzEQosDGdXrtdA7WzJpx8oE3B72wL8/lc6xGhONx/Odx/QTrcFkH3CAr+Pn7BX8ZG6TXEhF32IJRSPp8yp/CJ+SIX4S9YiYYzd9aQUlLY89dIlG7hW3R53jWklHYulFJVRJgXDURVyqgXI/AkNS52E573KwK/WDWpR3C9VIqqSLnLqJc1LOnAhHYf7Q0kW01P5IpWG/WyCNRITuEMFUz1ee9qLN7rWQSGPSSFLlfAUoNWp+jfHOzx2DK6tojJZFZVjIAy4cwfS+sUW7mGN8aKCJRZZmGG6xCNC3zkqok/7ggLzmRMWLmGCMWf3wIA7u7/GcZaI79o0+HzHfJ4wb2D93sKqnbhyQIQEfkiRwpQZtGwUgrDDxZgoSIcaAFSq1OQNvVEA+FYBWc9hrAuzODdg1jA/VN04YsrFdr8DqIN+bCAR+dPAdo87VNbbQOss0ZV/ZqqKRo8nZ88wr5KsmEt0Vgcyv+0feCVPnEPcRzf3t42+A2fg7Ls6ujoiD++vb1Bq+6DcF+6esZoNOKPQRCYRHRR2nFYRF3XbR11qxjOP3IIKBREKPJFPp1eO4hQSpkljU6x4Z8AZt3BAhQNmC7dMaLdmNQ16hrv3X2OiqGTmuWGcBZmWvkVVAzQafF2Q/QWkrhi2LmssS38BedLb0ZxjegEAAAAAElFTkSuQmCC;strokeColor=none;points=[];labelBackgroundColor=none;rounded=0;html=1;whiteSpace=wrap;" vertex="1" parent="FKx4Xq9cWPTMeUBCNptK-56">
          <mxGeometry x="40.06626173384871" width="79.86747653230259" height="31.45223633351739" as="geometry" />
        </mxCell>
        <mxCell id="FKx4Xq9cWPTMeUBCNptK-4" value="" style="shape=mxgraph.rack.apc.apc_smart_ups_1000-3000_va_2u;html=1;labelPosition=right;align=left;spacingLeft=15;dashed=0;shadow=0;fillColor=#ffffff;fontSize=9;" vertex="1" parent="FKx4Xq9cWPTMeUBCNptK-2">
          <mxGeometry x="33" y="881" width="162" height="40" as="geometry" />
        </mxCell>
        <mxCell id="FKx4Xq9cWPTMeUBCNptK-151" value="2U cable manager" style="group;spacingLeft=27;align=left;fontSize=9;labelPosition=right;verticalLabelPosition=middle;verticalAlign=middle;" vertex="1" connectable="0" parent="FKx4Xq9cWPTMeUBCNptK-2">
          <mxGeometry x="33" y="481" width="162" height="40" as="geometry" />
        </mxCell>
        <mxCell id="FKx4Xq9cWPTMeUBCNptK-100" value="" style="strokeColor=#666666;html=1;labelPosition=right;align=left;spacingLeft=15;shadow=0;dashed=0;outlineConnect=0;shape=mxgraph.rackGeneral.horCableDuct;flipV=1;" vertex="1" parent="FKx4Xq9cWPTMeUBCNptK-151">
          <mxGeometry width="162" height="20" as="geometry" />
        </mxCell>
        <mxCell id="FKx4Xq9cWPTMeUBCNptK-99" value="" style="strokeColor=#666666;html=1;labelPosition=right;align=left;spacingLeft=15;shadow=0;dashed=0;outlineConnect=0;shape=mxgraph.rackGeneral.horCableDuct;" vertex="1" parent="FKx4Xq9cWPTMeUBCNptK-151">
          <mxGeometry y="20" width="162" height="20" as="geometry" />
        </mxCell>
        <mxCell id="FKx4Xq9cWPTMeUBCNptK-67" value="" style="shape=mxgraph.cisco.people.standing_man;html=1;pointerEvents=1;dashed=0;fillColor=#036897;strokeColor=#ffffff;strokeWidth=2;verticalLabelPosition=bottom;verticalAlign=top;align=center;outlineConnect=0;aspect=fixed;" vertex="1" parent="1">
          <mxGeometry x="67" y="229" width="290.97" height="820" as="geometry" />
        </mxCell>
        <mxCell id="FKx4Xq9cWPTMeUBCNptK-118" value="&lt;p style=&quot;line-height: 100%;&quot;&gt;&lt;font color=&quot;#000000&quot; style=&quot;font-size: 9px;&quot;&gt;Unifi U6+&lt;br style=&quot;font-size: 9px;&quot;&gt;Access point&lt;/font&gt;&lt;/p&gt;" style="fontColor=#0066CC;verticalAlign=middle;verticalLabelPosition=middle;labelPosition=right;align=left;html=1;outlineConnect=0;fillColor=#CCCCCC;strokeColor=#6881B3;gradientColor=none;gradientDirection=north;strokeWidth=2;shape=mxgraph.networks.wireless_hub;fontSize=9;spacingRight=0;spacingLeft=5;spacingTop=20;" vertex="1" parent="1">
          <mxGeometry x="581" y="49" width="53" height="40" as="geometry" />
        </mxCell>
        <mxCell id="FKx4Xq9cWPTMeUBCNptK-121" value="" style="shape=flexArrow;endArrow=classic;html=1;rounded=0;labelPosition=right;verticalLabelPosition=middle;align=left;verticalAlign=middle;" edge="1" parent="1">
          <mxGeometry width="50" height="50" relative="1" as="geometry">
            <mxPoint x="720" y="40" as="sourcePoint" />
            <mxPoint x="720" y="89" as="targetPoint" />
          </mxGeometry>
        </mxCell>
        <mxCell id="FKx4Xq9cWPTMeUBCNptK-122" value="Device&lt;br&gt;cables" style="edgeLabel;html=1;align=center;verticalAlign=middle;resizable=0;points=[];" vertex="1" connectable="0" parent="FKx4Xq9cWPTMeUBCNptK-121">
          <mxGeometry relative="1" as="geometry">
            <mxPoint x="40" y="-1" as="offset" />
          </mxGeometry>
        </mxCell>
        <mxCell id="FKx4Xq9cWPTMeUBCNptK-123" style="edgeStyle=orthogonalEdgeStyle;rounded=0;orthogonalLoop=1;jettySize=auto;html=1;startArrow=classic;startFill=1;" edge="1" parent="1">
          <mxGeometry relative="1" as="geometry">
            <mxPoint x="950" y="115" as="sourcePoint" />
            <mxPoint x="750" y="140" as="targetPoint" />
            <Array as="points">
              <mxPoint x="790" y="115" />
              <mxPoint x="790" y="140" />
            </Array>
          </mxGeometry>
        </mxCell>
        <mxCell id="FKx4Xq9cWPTMeUBCNptK-124" value="3x MTP/MPO OS4" style="edgeLabel;html=1;align=center;verticalAlign=middle;resizable=0;points=[];fontSize=9;labelBackgroundColor=default;" vertex="1" connectable="0" parent="FKx4Xq9cWPTMeUBCNptK-123">
          <mxGeometry x="0.3626" y="-1" relative="1" as="geometry">
            <mxPoint x="53" y="2" as="offset" />
          </mxGeometry>
        </mxCell>
        <mxCell id="FKx4Xq9cWPTMeUBCNptK-156" style="edgeStyle=orthogonalEdgeStyle;rounded=0;orthogonalLoop=1;jettySize=auto;html=1;startArrow=classic;startFill=1;" edge="1" parent="1">
          <mxGeometry relative="1" as="geometry">
            <mxPoint x="750" y="165" as="sourcePoint" />
            <mxPoint x="950" y="140" as="targetPoint" />
            <Array as="points">
              <mxPoint x="910" y="165" />
              <mxPoint x="910" y="140" />
            </Array>
          </mxGeometry>
        </mxCell>
        <mxCell id="FKx4Xq9cWPTMeUBCNptK-157" value="12x Cat5" style="edgeLabel;html=1;align=center;verticalAlign=middle;resizable=0;points=[];fontSize=9;" vertex="1" connectable="0" parent="FKx4Xq9cWPTMeUBCNptK-156">
          <mxGeometry x="-0.0722" y="-1" relative="1" as="geometry">
            <mxPoint x="-4" y="-3" as="offset" />
          </mxGeometry>
        </mxCell>
        <mxCell id="FKx4Xq9cWPTMeUBCNptK-163" value="" style="edgeStyle=none;orthogonalLoop=1;jettySize=auto;html=1;rounded=0;startArrow=classic;startFill=1;" edge="1" parent="1">
          <mxGeometry width="80" relative="1" as="geometry">
            <mxPoint x="1270" y="505" as="sourcePoint" />
            <mxPoint x="1270" y="530" as="targetPoint" />
            <Array as="points">
              <mxPoint x="1290" y="505" />
              <mxPoint x="1290" y="530" />
            </Array>
          </mxGeometry>
        </mxCell>
        <mxCell id="FKx4Xq9cWPTMeUBCNptK-166" value="VGA, PS/2" style="edgeLabel;html=1;align=left;verticalAlign=middle;resizable=0;points=[];fontSize=9;" vertex="1" connectable="0" parent="FKx4Xq9cWPTMeUBCNptK-163">
          <mxGeometry x="0.0017" relative="1" as="geometry">
            <mxPoint y="-2" as="offset" />
          </mxGeometry>
        </mxCell>
        <mxCell id="FKx4Xq9cWPTMeUBCNptK-167" value="" style="edgeStyle=none;orthogonalLoop=1;jettySize=auto;html=1;rounded=0;startArrow=classic;startFill=1;" edge="1" parent="1">
          <mxGeometry width="80" relative="1" as="geometry">
            <mxPoint x="1270" y="990" as="sourcePoint" />
            <mxPoint x="1270" y="140" as="targetPoint" />
            <Array as="points">
              <mxPoint x="1370" y="990" />
              <mxPoint x="1370" y="140" />
            </Array>
          </mxGeometry>
        </mxCell>
        <mxCell id="FKx4Xq9cWPTMeUBCNptK-169" value="Cat5" style="edgeLabel;html=1;align=left;verticalAlign=middle;resizable=0;points=[];fontSize=9;" vertex="1" connectable="0" parent="FKx4Xq9cWPTMeUBCNptK-167">
          <mxGeometry x="-0.9103" relative="1" as="geometry">
            <mxPoint x="-27" y="-850" as="offset" />
          </mxGeometry>
        </mxCell>
        <mxCell id="FKx4Xq9cWPTMeUBCNptK-178" value="SNMP" style="edgeLabel;html=1;align=left;verticalAlign=middle;resizable=0;points=[];fontSize=9;" vertex="1" connectable="0" parent="FKx4Xq9cWPTMeUBCNptK-167">
          <mxGeometry x="-0.9396" relative="1" as="geometry">
            <mxPoint x="-12" as="offset" />
          </mxGeometry>
        </mxCell>
        <mxCell id="FKx4Xq9cWPTMeUBCNptK-168" value="" style="edgeStyle=none;orthogonalLoop=1;jettySize=auto;html=1;rounded=0;startArrow=classic;startFill=1;jumpStyle=arc;" edge="1" parent="1">
          <mxGeometry width="80" relative="1" as="geometry">
            <mxPoint x="1270" y="750" as="sourcePoint" />
            <mxPoint x="1270" y="120" as="targetPoint" />
            <Array as="points">
              <mxPoint x="1380" y="750" />
              <mxPoint x="1380" y="120" />
            </Array>
          </mxGeometry>
        </mxCell>
        <mxCell id="FKx4Xq9cWPTMeUBCNptK-182" value="QSFP+ DAC" style="edgeLabel;html=1;align=left;verticalAlign=middle;resizable=0;points=[];fontSize=9;" vertex="1" connectable="0" parent="FKx4Xq9cWPTMeUBCNptK-168">
          <mxGeometry x="0.9033" y="-1" relative="1" as="geometry">
            <mxPoint x="-21" y="1" as="offset" />
          </mxGeometry>
        </mxCell>
        <mxCell id="FKx4Xq9cWPTMeUBCNptK-183" value="QSFP+" style="edgeLabel;html=1;align=left;verticalAlign=middle;resizable=0;points=[];fontSize=9;" vertex="1" connectable="0" parent="FKx4Xq9cWPTMeUBCNptK-168">
          <mxGeometry x="-0.7185" y="-1" relative="1" as="geometry">
            <mxPoint x="-91" y="12" as="offset" />
          </mxGeometry>
        </mxCell>
        <mxCell id="FKx4Xq9cWPTMeUBCNptK-170" value="" style="edgeStyle=none;orthogonalLoop=1;jettySize=auto;html=1;rounded=0;" edge="1" parent="1">
          <mxGeometry width="80" relative="1" as="geometry">
            <mxPoint x="1370" y="950" as="sourcePoint" />
            <mxPoint x="1270" y="950" as="targetPoint" />
            <Array as="points" />
          </mxGeometry>
        </mxCell>
        <mxCell id="FKx4Xq9cWPTMeUBCNptK-177" value="Management" style="edgeLabel;html=1;align=left;verticalAlign=middle;resizable=0;points=[];fontSize=9;" vertex="1" connectable="0" parent="FKx4Xq9cWPTMeUBCNptK-170">
          <mxGeometry x="0.52" y="1" relative="1" as="geometry">
            <mxPoint x="-4" y="-1" as="offset" />
          </mxGeometry>
        </mxCell>
        <mxCell id="FKx4Xq9cWPTMeUBCNptK-171" value="" style="edgeStyle=none;orthogonalLoop=1;jettySize=auto;html=1;rounded=0;" edge="1" parent="1">
          <mxGeometry width="80" relative="1" as="geometry">
            <mxPoint x="1370" y="740" as="sourcePoint" />
            <mxPoint x="1270" y="740" as="targetPoint" />
            <Array as="points" />
          </mxGeometry>
        </mxCell>
        <mxCell id="FKx4Xq9cWPTMeUBCNptK-176" value="iDRAC" style="edgeLabel;html=1;align=left;verticalAlign=middle;resizable=0;points=[];fontSize=9;" vertex="1" connectable="0" parent="FKx4Xq9cWPTMeUBCNptK-171">
          <mxGeometry x="0.4277" y="2" relative="1" as="geometry">
            <mxPoint x="-9" y="-2" as="offset" />
          </mxGeometry>
        </mxCell>
        <mxCell id="FKx4Xq9cWPTMeUBCNptK-172" value="" style="edgeStyle=none;orthogonalLoop=1;jettySize=auto;html=1;rounded=0;" edge="1" parent="1">
          <mxGeometry width="80" relative="1" as="geometry">
            <mxPoint x="1371" y="620" as="sourcePoint" />
            <mxPoint x="1270" y="620" as="targetPoint" />
            <Array as="points" />
          </mxGeometry>
        </mxCell>
        <mxCell id="FKx4Xq9cWPTMeUBCNptK-175" value="2x vPro" style="edgeLabel;html=1;align=left;verticalAlign=middle;resizable=0;points=[];fontSize=9;" vertex="1" connectable="0" parent="FKx4Xq9cWPTMeUBCNptK-172">
          <mxGeometry x="0.079" y="1" relative="1" as="geometry">
            <mxPoint x="-26" y="-1" as="offset" />
          </mxGeometry>
        </mxCell>
        <mxCell id="FKx4Xq9cWPTMeUBCNptK-173" value="" style="edgeStyle=none;orthogonalLoop=1;jettySize=auto;html=1;rounded=0;" edge="1" parent="1">
          <mxGeometry width="80" relative="1" as="geometry">
            <mxPoint x="1370" y="540" as="sourcePoint" />
            <mxPoint x="1270" y="540" as="targetPoint" />
            <Array as="points" />
          </mxGeometry>
        </mxCell>
        <mxCell id="FKx4Xq9cWPTMeUBCNptK-174" value="2x vPro" style="edgeLabel;html=1;align=left;verticalAlign=middle;resizable=0;points=[];fontSize=9;" vertex="1" connectable="0" parent="FKx4Xq9cWPTMeUBCNptK-173">
          <mxGeometry x="-0.2903" relative="1" as="geometry">
            <mxPoint x="-45" as="offset" />
          </mxGeometry>
        </mxCell>
        <mxCell id="FKx4Xq9cWPTMeUBCNptK-184" value="" style="edgeStyle=none;orthogonalLoop=1;jettySize=auto;html=1;rounded=0;startArrow=classic;startFill=1;" edge="1" parent="1">
          <mxGeometry width="80" relative="1" as="geometry">
            <mxPoint x="1270" y="850" as="sourcePoint" />
            <mxPoint x="1270" y="770" as="targetPoint" />
            <Array as="points">
              <mxPoint x="1351" y="850" />
              <mxPoint x="1351" y="770" />
            </Array>
          </mxGeometry>
        </mxCell>
        <mxCell id="FKx4Xq9cWPTMeUBCNptK-185" value="&lt;p style=&quot;line-height: 100%;&quot;&gt;&lt;span style=&quot;font-size: 9px; background-color: rgb(251, 251, 251);&quot;&gt;SFF-8436 to &lt;br style=&quot;font-size: 9px;&quot;&gt;SFF-8088 DACs&lt;/span&gt;&lt;/p&gt;" style="edgeLabel;html=1;align=left;verticalAlign=middle;resizable=0;points=[];fontSize=9;" vertex="1" connectable="0" parent="FKx4Xq9cWPTMeUBCNptK-184">
          <mxGeometry x="-0.0042" y="2" relative="1" as="geometry">
            <mxPoint x="-59" y="-2" as="offset" />
          </mxGeometry>
        </mxCell>
        <mxCell id="FKx4Xq9cWPTMeUBCNptK-187" value="" style="edgeStyle=none;orthogonalLoop=1;jettySize=auto;html=1;rounded=0;startArrow=classic;startFill=1;jumpStyle=arc;" edge="1" parent="1">
          <mxGeometry width="80" relative="1" as="geometry">
            <mxPoint x="1270" y="910" as="sourcePoint" />
            <mxPoint x="1270" y="760" as="targetPoint" />
            <Array as="points">
              <mxPoint x="1360" y="910" />
              <mxPoint x="1360" y="760" />
            </Array>
          </mxGeometry>
        </mxCell>
        <mxCell id="FKx4Xq9cWPTMeUBCNptK-188" value="Fiber Channel&lt;br style=&quot;font-size: 9px;&quot;&gt;LC UPC" style="edgeLabel;html=1;align=left;verticalAlign=middle;resizable=0;points=[];fontSize=9;" vertex="1" connectable="0" parent="FKx4Xq9cWPTMeUBCNptK-187">
          <mxGeometry x="-0.7512" y="-2" relative="1" as="geometry">
            <mxPoint x="-21" y="-2" as="offset" />
          </mxGeometry>
        </mxCell>
        <mxCell id="FKx4Xq9cWPTMeUBCNptK-189" value="" style="edgeStyle=none;orthogonalLoop=1;jettySize=auto;html=1;rounded=0;jumpStyle=arc;" edge="1" parent="1">
          <mxGeometry width="80" relative="1" as="geometry">
            <mxPoint x="1380" y="640" as="sourcePoint" />
            <mxPoint x="1270" y="640" as="targetPoint" />
            <Array as="points" />
          </mxGeometry>
        </mxCell>
        <mxCell id="FKx4Xq9cWPTMeUBCNptK-190" value="&lt;font style=&quot;font-size: 9px;&quot;&gt;4x SFP+&lt;/font&gt;" style="edgeLabel;html=1;align=left;verticalAlign=middle;resizable=0;points=[];" vertex="1" connectable="0" parent="FKx4Xq9cWPTMeUBCNptK-189">
          <mxGeometry x="0.2176" y="-1" relative="1" as="geometry">
            <mxPoint x="-23" as="offset" />
          </mxGeometry>
        </mxCell>
        <mxCell id="FKx4Xq9cWPTMeUBCNptK-191" value="" style="edgeStyle=none;orthogonalLoop=1;jettySize=auto;html=1;rounded=0;jumpStyle=arc;" edge="1" parent="1">
          <mxGeometry width="80" relative="1" as="geometry">
            <mxPoint x="1380" y="560" as="sourcePoint" />
            <mxPoint x="1270" y="560" as="targetPoint" />
            <Array as="points" />
          </mxGeometry>
        </mxCell>
        <mxCell id="FKx4Xq9cWPTMeUBCNptK-192" value="&lt;font style=&quot;font-size: 9px;&quot;&gt;4x SFP+&lt;/font&gt;" style="edgeLabel;html=1;align=left;verticalAlign=middle;resizable=0;points=[];" vertex="1" connectable="0" parent="FKx4Xq9cWPTMeUBCNptK-191">
          <mxGeometry x="0.2176" y="-1" relative="1" as="geometry">
            <mxPoint x="-23" as="offset" />
          </mxGeometry>
        </mxCell>
        <mxCell id="FKx4Xq9cWPTMeUBCNptK-193" value="" style="edgeStyle=none;orthogonalLoop=1;jettySize=auto;html=1;rounded=0;endArrow=none;endFill=0;flowAnimation=0;startArrow=classic;startFill=1;" edge="1" parent="1">
          <mxGeometry width="80" relative="1" as="geometry">
            <mxPoint x="1270" y="495" as="sourcePoint" />
            <mxPoint x="1370" y="495" as="targetPoint" />
            <Array as="points" />
          </mxGeometry>
        </mxCell>
        <mxCell id="FKx4Xq9cWPTMeUBCNptK-195" value="&lt;font style=&quot;font-size: 9px;&quot;&gt;Management&lt;/font&gt;" style="edgeLabel;html=1;align=left;verticalAlign=middle;resizable=0;points=[];" vertex="1" connectable="0" parent="FKx4Xq9cWPTMeUBCNptK-193">
          <mxGeometry x="-0.3487" y="-2" relative="1" as="geometry">
            <mxPoint x="-13" y="-2" as="offset" />
          </mxGeometry>
        </mxCell>
        <mxCell id="FKx4Xq9cWPTMeUBCNptK-199" value="" style="endArrow=none;html=1;rounded=0;" edge="1" parent="1">
          <mxGeometry width="50" height="50" relative="1" as="geometry">
            <mxPoint x="750" y="170" as="sourcePoint" />
            <mxPoint x="750" y="110" as="targetPoint" />
          </mxGeometry>
        </mxCell>
        <mxCell id="FKx4Xq9cWPTMeUBCNptK-200" value="" style="endArrow=none;html=1;rounded=0;" edge="1" parent="1">
          <mxGeometry width="50" height="50" relative="1" as="geometry">
            <mxPoint x="950" y="170" as="sourcePoint" />
            <mxPoint x="950" y="110" as="targetPoint" />
          </mxGeometry>
        </mxCell>
        <mxCell id="FKx4Xq9cWPTMeUBCNptK-201" value="" style="endArrow=none;html=1;rounded=0;" edge="1" parent="1">
          <mxGeometry width="50" height="50" relative="1" as="geometry">
            <mxPoint x="440" y="130" as="sourcePoint" />
            <mxPoint x="530" y="130" as="targetPoint" />
          </mxGeometry>
        </mxCell>
        <mxCell id="FKx4Xq9cWPTMeUBCNptK-203" value="" style="endArrow=none;html=1;rounded=0;" edge="1" parent="1">
          <mxGeometry width="50" height="50" relative="1" as="geometry">
            <mxPoint x="530" y="110" as="sourcePoint" />
            <mxPoint x="530" y="1010" as="targetPoint" />
          </mxGeometry>
        </mxCell>
        <mxCell id="FKx4Xq9cWPTMeUBCNptK-204" value="" style="endArrow=none;html=1;rounded=0;" edge="1" parent="1">
          <mxGeometry width="50" height="50" relative="1" as="geometry">
            <mxPoint x="440" y="150" as="sourcePoint" />
            <mxPoint x="530" y="150" as="targetPoint" />
          </mxGeometry>
        </mxCell>
        <mxCell id="FKx4Xq9cWPTMeUBCNptK-207" value="" style="endArrow=none;html=1;rounded=0;" edge="1" parent="1">
          <mxGeometry width="50" height="50" relative="1" as="geometry">
            <mxPoint x="440" y="490" as="sourcePoint" />
            <mxPoint x="530" y="490" as="targetPoint" />
          </mxGeometry>
        </mxCell>
        <mxCell id="FKx4Xq9cWPTMeUBCNptK-208" value="" style="endArrow=none;html=1;rounded=0;" edge="1" parent="1">
          <mxGeometry width="50" height="50" relative="1" as="geometry">
            <mxPoint x="440" y="510" as="sourcePoint" />
            <mxPoint x="530" y="510" as="targetPoint" />
          </mxGeometry>
        </mxCell>
        <mxCell id="FKx4Xq9cWPTMeUBCNptK-209" value="" style="endArrow=none;html=1;rounded=0;" edge="1" parent="1">
          <mxGeometry width="50" height="50" relative="1" as="geometry">
            <mxPoint x="440" y="530" as="sourcePoint" />
            <mxPoint x="530" y="530" as="targetPoint" />
          </mxGeometry>
        </mxCell>
        <mxCell id="FKx4Xq9cWPTMeUBCNptK-210" value="" style="endArrow=none;html=1;rounded=0;" edge="1" parent="1">
          <mxGeometry width="50" height="50" relative="1" as="geometry">
            <mxPoint x="440" y="570" as="sourcePoint" />
            <mxPoint x="530" y="570" as="targetPoint" />
          </mxGeometry>
        </mxCell>
        <mxCell id="FKx4Xq9cWPTMeUBCNptK-211" value="" style="endArrow=none;html=1;rounded=0;" edge="1" parent="1">
          <mxGeometry width="50" height="50" relative="1" as="geometry">
            <mxPoint x="440" y="610" as="sourcePoint" />
            <mxPoint x="530" y="610" as="targetPoint" />
          </mxGeometry>
        </mxCell>
        <mxCell id="FKx4Xq9cWPTMeUBCNptK-212" value="" style="endArrow=none;html=1;rounded=0;" edge="1" parent="1">
          <mxGeometry width="50" height="50" relative="1" as="geometry">
            <mxPoint x="440" y="650" as="sourcePoint" />
            <mxPoint x="530" y="650" as="targetPoint" />
          </mxGeometry>
        </mxCell>
        <mxCell id="FKx4Xq9cWPTMeUBCNptK-213" value="" style="endArrow=none;html=1;rounded=0;" edge="1" parent="1">
          <mxGeometry width="50" height="50" relative="1" as="geometry">
            <mxPoint x="440" y="690" as="sourcePoint" />
            <mxPoint x="530" y="690" as="targetPoint" />
          </mxGeometry>
        </mxCell>
        <mxCell id="FKx4Xq9cWPTMeUBCNptK-214" value="" style="endArrow=none;html=1;rounded=0;" edge="1" parent="1">
          <mxGeometry width="50" height="50" relative="1" as="geometry">
            <mxPoint x="440" y="730" as="sourcePoint" />
            <mxPoint x="530" y="730" as="targetPoint" />
          </mxGeometry>
        </mxCell>
        <mxCell id="FKx4Xq9cWPTMeUBCNptK-215" value="" style="endArrow=none;html=1;rounded=0;" edge="1" parent="1">
          <mxGeometry width="50" height="50" relative="1" as="geometry">
            <mxPoint x="440" y="770" as="sourcePoint" />
            <mxPoint x="530" y="770" as="targetPoint" />
          </mxGeometry>
        </mxCell>
        <mxCell id="FKx4Xq9cWPTMeUBCNptK-216" value="" style="endArrow=none;html=1;rounded=0;" edge="1" parent="1">
          <mxGeometry width="50" height="50" relative="1" as="geometry">
            <mxPoint x="440" y="810" as="sourcePoint" />
            <mxPoint x="530" y="810" as="targetPoint" />
          </mxGeometry>
        </mxCell>
        <mxCell id="FKx4Xq9cWPTMeUBCNptK-217" value="" style="endArrow=none;html=1;rounded=0;" edge="1" parent="1">
          <mxGeometry width="50" height="50" relative="1" as="geometry">
            <mxPoint x="440" y="890" as="sourcePoint" />
            <mxPoint x="530" y="890" as="targetPoint" />
          </mxGeometry>
        </mxCell>
        <mxCell id="FKx4Xq9cWPTMeUBCNptK-218" value="" style="endArrow=none;html=1;rounded=0;" edge="1" parent="1">
          <mxGeometry width="50" height="50" relative="1" as="geometry">
            <mxPoint x="440" y="970" as="sourcePoint" />
            <mxPoint x="530" y="970" as="targetPoint" />
          </mxGeometry>
        </mxCell>
        <mxCell id="FKx4Xq9cWPTMeUBCNptK-219" value="" style="endArrow=none;html=1;rounded=0;" edge="1" parent="1">
          <mxGeometry width="50" height="50" relative="1" as="geometry">
            <mxPoint x="1170" y="150" as="sourcePoint" />
            <mxPoint x="1260" y="150" as="targetPoint" />
          </mxGeometry>
        </mxCell>
        <mxCell id="FKx4Xq9cWPTMeUBCNptK-220" value="" style="endArrow=none;html=1;rounded=0;" edge="1" parent="1">
          <mxGeometry width="50" height="50" relative="1" as="geometry">
            <mxPoint x="1170" y="110" as="sourcePoint" />
            <mxPoint x="1170" y="1010" as="targetPoint" />
          </mxGeometry>
        </mxCell>
        <mxCell id="FKx4Xq9cWPTMeUBCNptK-221" value="" style="endArrow=none;html=1;rounded=0;" edge="1" parent="1">
          <mxGeometry width="50" height="50" relative="1" as="geometry">
            <mxPoint x="1170" y="129.26" as="sourcePoint" />
            <mxPoint x="1260" y="129.26" as="targetPoint" />
          </mxGeometry>
        </mxCell>
        <mxCell id="FKx4Xq9cWPTMeUBCNptK-225" value="Front to back cabling" style="rounded=0;whiteSpace=wrap;html=1;fillStyle=hatch;fillColor=#CCCCCC;shadow=0;glass=0;labelPosition=center;verticalLabelPosition=top;align=center;verticalAlign=bottom;connectable=0;" vertex="1" parent="1">
          <mxGeometry x="745" y="490" width="235" height="20" as="geometry" />
        </mxCell>
        <mxCell id="FKx4Xq9cWPTMeUBCNptK-222" value="" style="endArrow=none;html=1;rounded=0;" edge="1" parent="1">
          <mxGeometry width="50" height="50" relative="1" as="geometry">
            <mxPoint x="1170" y="510.74" as="sourcePoint" />
            <mxPoint x="1260" y="510.74" as="targetPoint" />
          </mxGeometry>
        </mxCell>
        <mxCell id="FKx4Xq9cWPTMeUBCNptK-223" value="" style="endArrow=none;html=1;rounded=0;" edge="1" parent="1">
          <mxGeometry width="50" height="50" relative="1" as="geometry">
            <mxPoint x="1170" y="490" as="sourcePoint" />
            <mxPoint x="1260" y="490" as="targetPoint" />
          </mxGeometry>
        </mxCell>
        <mxCell id="FKx4Xq9cWPTMeUBCNptK-158" style="edgeStyle=orthogonalEdgeStyle;rounded=0;orthogonalLoop=1;jettySize=auto;html=1;startArrow=classic;startFill=1;" edge="1" parent="1">
          <mxGeometry relative="1" as="geometry">
            <mxPoint x="750" y="500" as="sourcePoint" />
            <mxPoint x="950" y="500" as="targetPoint" />
          </mxGeometry>
        </mxCell>
        <mxCell id="FKx4Xq9cWPTMeUBCNptK-159" value="&lt;p style=&quot;line-height: 100%;&quot;&gt;&lt;br&gt;&lt;/p&gt;" style="edgeLabel;html=1;align=center;verticalAlign=middle;resizable=0;points=[];fontSize=9;spacing=2;" vertex="1" connectable="0" parent="FKx4Xq9cWPTMeUBCNptK-158">
          <mxGeometry relative="1" as="geometry">
            <mxPoint as="offset" />
          </mxGeometry>
        </mxCell>
        <mxCell id="FKx4Xq9cWPTMeUBCNptK-227" value="&lt;p style=&quot;line-height: 100%; margin-bottom: 0px; margin-top: 0px; font-size: 9px;&quot;&gt;&lt;font style=&quot;font-size: 9px;&quot;&gt;16x Cat5 for KVM connections&lt;br style=&quot;font-size: 9px;&quot;&gt;&lt;/font&gt;&lt;span style=&quot;font-size: 9px;&quot;&gt;1x Cat5 for network&lt;/span&gt;&lt;/p&gt;" style="edgeLabel;html=1;align=center;verticalAlign=middle;resizable=1;points=[];autosize=1;fixedWidth=0;resizeHeight=1;fontSize=9;" vertex="1" connectable="0" parent="FKx4Xq9cWPTMeUBCNptK-158">
          <mxGeometry width="150" height="30" relative="1" as="geometry">
            <mxPoint x="-72" y="-16" as="offset" />
          </mxGeometry>
        </mxCell>
        <mxCell id="FKx4Xq9cWPTMeUBCNptK-229" value="" style="endArrow=none;html=1;rounded=0;" edge="1" parent="1">
          <mxGeometry width="50" height="50" relative="1" as="geometry">
            <mxPoint x="750" y="510" as="sourcePoint" />
            <mxPoint x="750" y="490" as="targetPoint" />
          </mxGeometry>
        </mxCell>
        <mxCell id="FKx4Xq9cWPTMeUBCNptK-230" value="" style="endArrow=none;html=1;rounded=0;" edge="1" parent="1">
          <mxGeometry width="50" height="50" relative="1" as="geometry">
            <mxPoint x="950" y="510" as="sourcePoint" />
            <mxPoint x="950" y="490" as="targetPoint" />
          </mxGeometry>
        </mxCell>
        <mxCell id="FKx4Xq9cWPTMeUBCNptK-197" value="" style="edgeStyle=none;orthogonalLoop=1;jettySize=auto;html=1;rounded=0;startArrow=classic;startFill=1;" edge="1" parent="1">
          <mxGeometry width="80" relative="1" as="geometry">
            <mxPoint x="950" y="125" as="sourcePoint" />
            <mxPoint x="750" y="155" as="targetPoint" />
            <Array as="points">
              <mxPoint x="850" y="125" />
              <mxPoint x="850" y="140" />
              <mxPoint x="850" y="155" />
            </Array>
          </mxGeometry>
        </mxCell>
        <mxCell id="FKx4Xq9cWPTMeUBCNptK-198" value="&lt;span style=&quot;font-size: 9px;&quot;&gt;QSFP+/4x SFP+ DAC&lt;/span&gt;" style="edgeLabel;html=1;align=center;verticalAlign=middle;resizable=0;points=[];fontSize=9;" vertex="1" connectable="0" parent="FKx4Xq9cWPTMeUBCNptK-197">
          <mxGeometry x="-0.0366" y="1" relative="1" as="geometry">
            <mxPoint x="-1" y="4" as="offset" />
          </mxGeometry>
        </mxCell>
        <mxCell id="FKx4Xq9cWPTMeUBCNptK-231" value="" style="endArrow=none;html=1;rounded=0;" edge="1" parent="1">
          <mxGeometry width="50" height="50" relative="1" as="geometry">
            <mxPoint x="1170" y="570" as="sourcePoint" />
            <mxPoint x="1260" y="570" as="targetPoint" />
          </mxGeometry>
        </mxCell>
        <mxCell id="FKx4Xq9cWPTMeUBCNptK-232" value="" style="endArrow=none;html=1;rounded=0;" edge="1" parent="1">
          <mxGeometry width="50" height="50" relative="1" as="geometry">
            <mxPoint x="1170" y="610" as="sourcePoint" />
            <mxPoint x="1260" y="610" as="targetPoint" />
          </mxGeometry>
        </mxCell>
      </root>
    </mxGraphModel>
  </diagram>
</mxfile>
